Coordinates
version=1
nRows=8
nColumns=40
inDegrees=yes

Units are S.I. units (second, meters, Newtons, ...)
Angles are in degrees.

endheader
time	pelvis_tilt	pelvis_list	pelvis_rotation	pelvis_tx	pelvis_ty	pelvis_tz	hip_flexion_r	hip_adduction_r	hip_rotation_r	knee_angle_r	knee_angle_r_beta	ankle_angle_r	subtalar_angle_r	mtp_angle_r	hip_flexion_l	hip_adduction_l	hip_rotation_l	knee_angle_l	knee_angle_l_beta	ankle_angle_l	subtalar_angle_l	mtp_angle_l	lumbar_extension	lumbar_bending	lumbar_rotation	arm_flex_r	arm_add_r	arm_rot_r	elbow_flex_r	pro_sup_r	wrist_flex_r	wrist_dev_r	arm_flex_l	arm_add_l	arm_rot_l	elbow_flex_l	pro_sup_l	wrist_flex_l	wrist_dev_l
      0.91000000	      3.46040385	      0.62028894	      0.47019529	      0.03875849	      0.90073020	      0.97867367	     22.23960321	     -2.14665354	     -8.52341402	    -44.68207068	     -0.77984925	      0.22444695	     -9.33805832	      7.10262930	     -7.63170617	     -2.79000233	     13.29504715	    -12.00773194	     -0.20957446	      8.40108207	     -8.18721066	     -3.53939560	     -8.56417853	      1.03244619	     -4.38520573	      0.98207035	     -7.97100283	     16.35691465	     10.86779302	     89.95437384	      0.00000000	      0.00000000	     11.30899241	     10.68806004	    -19.13876374	     24.73109151	     89.95437384	      0.00000000	      0.00000000
      0.92000000	      3.59279283	      0.49541979	      0.82464272	      0.05056766	      0.89994704	      0.97809373	     22.51531401	     -2.12098269	     -9.52143224	    -41.67730404	     -0.72740618	      0.64459483	     -8.64437979	      6.82681429	     -8.85670707	     -2.62555265	     13.52079572	    -11.53242148	     -0.20127873	      8.54115550	     -8.69413267	     -3.68029885	     -8.67642229	      1.28572523	     -4.77155067	      0.22508388	     -8.05398014	     16.16749871	     10.71499784	     89.95437384	      0.00000000	      0.00000000	     12.37461925	     10.82185149	    -19.16628629	     25.94954552	     89.95437384	      0.00000000	      0.00000000
      0.93000000	      3.66910013	      0.38741555	      1.25292317	      0.06234009	      0.89892169	      0.97744339	     22.78877687	     -2.16557314	    -10.68133490	    -38.65641969	     -0.67468180	      0.66755389	     -8.15789237	      6.73174623	     -9.91263928	     -2.45481015	     13.52477631	    -11.27030935	     -0.19670401	      8.64236304	     -9.23438646	     -3.80180120	     -8.74250359	      1.53158249	     -5.19967941	     -0.53386778	     -8.14758422	     15.88588926	     10.65064229	     89.95437384	      0.00000000	      0.00000000	     13.40718232	     10.94996811	    -19.15517863	     27.19978592	     89.95437384	      0.00000000	      0.00000000
      0.94000000	      3.65822667	      0.35159401	      1.60488977	      0.07405159	      0.89758881	      0.97691693	     23.12641857	     -2.29094542	    -11.90340724	    -35.63767866	     -0.62199483	      0.39745130	     -7.59025279	      6.71753855	    -10.82469266	     -2.36938753	     13.47983012	    -11.09614187	     -0.19366421	      8.85642810	     -9.51097615	     -3.92086330	     -8.71878478	      1.67004723	     -5.52597420	     -1.29164285	     -8.21869910	     15.60576922	     10.59553163	     89.95437384	      0.00000000	      0.00000000	     14.41345277	     11.07418737	    -19.10578380	     28.46506852	     89.95437384	      0.00000000	      0.00000000
      0.95000000	      3.19435541	      0.76488508	      1.61039723	      0.08545575	      0.89521290	      0.97649090	     24.26166584	     -2.86879849	    -12.86934044	    -33.24496430	     -0.58023409	      0.48817292	     -7.38835603	      6.72181693	    -11.15221974	     -2.86911703	     13.67796254	    -11.08449483	     -0.19346093	      9.12784808	     -9.50278880	     -3.95701615	     -8.21286998	      1.27280197	     -5.43689339	     -2.10594479	     -8.29769770	     15.55921823	     10.47408056	     89.95437384	      0.00000000	      0.00000000	     15.46610948	     11.05850951	    -18.94412878	     29.51341349	     89.95437384	      0.00000000	      0.00000000
      0.96000000	      3.61821266	      0.33174389	      2.29716072	      0.09746129	      0.89449899	      0.97607296	     23.61847327	     -2.62139441	    -14.80738449	    -29.69472863	     -0.51827079	     -0.46279960	     -6.09490790	      6.75798016	    -12.48396649	     -2.19758311	     13.13750499	    -11.03612566	     -0.19261673	      9.46934882	     -9.70884745	     -4.13524906	     -8.68135151	      1.85492004	     -6.01237417	     -2.79248435	     -8.37403546	     15.09765248	     10.54947019	     89.95437384	      0.00000000	      0.00000000	     16.38802902	     11.24949332	    -18.96165743	     30.96891361	     89.95437384	      0.00000000	      0.00000000
      0.97000000	      3.60697507	      0.32383375	      2.63929193	      0.10918248	      0.89289743	      0.97575471	     23.75262067	     -2.79973548	    -16.50602058	    -26.88743832	     -0.46927433	     -0.90345416	     -4.82508870	      6.55632554	    -13.29237814	     -2.07854283	     12.82357942	    -11.06142693	     -0.19305832	      9.66440463	     -9.75880059	     -4.30417519	     -8.69403449	      1.93367968	     -6.21069808	     -3.43364307	     -8.38971111	     14.54342778	     10.43541639	     89.95437384	      0.00000000	      0.00000000	     17.33073468	     11.25157608	    -18.69036496	     32.18886737	     89.95437384	      0.00000000	      0.00000000
      0.98000000	      3.48881120	      0.36209558	      2.87037689	      0.12096633	      0.89109058	      0.97585543	     24.02024685	     -2.97107766	    -18.19425959	    -24.42061042	     -0.42622006	     -1.21757425	     -3.22781829	      6.05738729	    -13.91145237	     -1.98250679	     12.52970626	    -11.29257053	     -0.19709254	      9.87581050	     -9.75716302	     -4.47976772	     -8.58078709	      1.89858379	     -6.22779046	     -4.10469500	     -8.36627653	     14.06603126	     10.31452844	     89.95437384	      0.00000000	      0.00000000	     18.19654259	     11.24477096	    -18.37436063	     33.44586671	     89.95437384	      0.00000000	      0.00000000
